<?xml version="1.0" encoding="utf-8"?>
<!-- Generator: Adobe Illustrator 19.0.0, SVG Export Plug-In . SVG Version: 6.00 Build 0)  -->
<svg version="1.1" id="Capa_1" xmlns="http://www.w3.org/2000/svg" xmlns:xlink="http://www.w3.org/1999/xlink" x="0px" y="0px"
	 viewBox="0 0 583.3 587.3" style="enable-background:new 0 0 583.3 587.3;" xml:space="preserve">
<style type="text/css">
	.st0{fill:#DE1026;}
</style>
<path id="XMLID_20_" class="st0" d="M132.5,401.1c-9.6,0-17.6-4.5-20.7-12.2c-3.4-7.7-1.3-16.8,5.6-23.9c18.6-20,36.6-35,55.1-51
	c9.9-8.4,20.2-17.1,30.8-26.6c15.7-12.2,22.9-32,18-46.8c-4-11.5-15-18.2-30.6-18.2c-13.2,0-26.7,8-34.3,20.3
	c-4.2,6.6-11,10.4-18.2,10.4s-14.1-3.5-17.8-9.6c-4.3-6.3-4.5-15-0.3-24.3c12.9-25.3,38.5-39.7,70.7-39.7c34.5,0,62,16.3,73.2,43.7
	c12.1,29.8,1.6,66.1-27.6,94.5c-20.7,17.7-36.1,29-55.7,40.9c5.2-0.2,10.3-0.6,15.4-0.9c7.7-0.5,15.3-1,22.5-1h36.4
	c13.9,0,21.2,11.9,21.2,23.1c0,5.7-1.8,10.7-5.1,14.6c-3.9,4.3-9.2,6.6-16.1,6.6H132.5z"/>
<path class="st0" d="M411.4,402.5c-10.7,0-22.4-6.3-22.4-19.9v-24.7h-86.9c-11.5,0-20-4.2-23.6-11.8c-4.1-8.2-2-18.6,5.8-28.2
	l105.1-127c6-6.2,12-11.3,24-11.3c15.1,0,20.5,12.8,20.5,23.8v111.3H446c6.3,0,11.4,2.3,15.3,6.6c3,3.8,4.8,9,4.8,14.4
	c0,11.1-6.9,22.3-20,22.3h-12.1v24.7C433.9,395.6,422.7,402.5,411.4,402.5 M391.3,314.2l0.5-65l-54.1,65H391.3z"/>
<path id="XMLID_17_" class="st0" d="M289.5,587.3c-69.9,0-137.5-24.9-190.4-70.1C46.5,472.5,11.4,410.5,0,343
	c-2-11.4,5.5-22.1,16.9-23.9c11.3-2,22,5.6,23.9,16.9c20.6,121.5,125,209.7,248.7,209.7c139,0,252.2-113,252.2-252.1
	c0-138.8-113.1-252-252.2-252c-60.2,0-118.3,21.5-164,60.6c-45,38.5-75.1,92.1-84.7,150.3c-2,11.2-12.8,19-23.9,17.1
	c-11.4-1.9-19-12.5-17.1-23.8C11,177.8,46,115.6,98.6,70.6C151.5,25,219.5,0,289.5,0c161.8,0,293.8,131.6,293.8,293.6
	C583.3,455.6,451.3,587.3,289.5,587.3"/>
</svg>
