<svg id="Layer_1" data-name="Layer 1" xmlns="http://www.w3.org/2000/svg" viewBox="0 0 124.35 100"><path d="M55.83,74.22c-.43-.61-.75-1.07-1.06-1.54A18.85,18.85,0,0,1,51.71,64a2.16,2.16,0,0,1,2.35-2.65c3.42,0,6.85,0,10.27,0a2.08,2.08,0,0,1,2.31,1.81c1,4.15,3.76,6.42,7.69,7.41a13.62,13.62,0,0,0,8.18-.4,9.24,9.24,0,0,0,6.34-7.92,14.32,14.32,0,0,0-.38-5.64,9,9,0,0,0-7.3-6.8,37.53,37.53,0,0,0-5.71-.52,5.94,5.94,0,0,1-5.58-4A5.83,5.83,0,0,1,73.6,38a5.72,5.72,0,0,1,1.45-.28,41.53,41.53,0,0,0,4.19-.22c5.1-.71,8.21-4.11,8.48-9.27a16.43,16.43,0,0,0-.34-4.08,7.81,7.81,0,0,0-4.15-5.33c-4-2.18-10-1.52-13.3,1.45a7.61,7.61,0,0,0-2.25,3.65c-.45,1.7-1,2.13-2.74,2.13H55.29c-2,0-2.86-1-2.54-3,1-6.3,4.53-10.81,10-13.91A29.51,29.51,0,0,1,79,5.57a32.59,32.59,0,0,1,10.61,2c7.82,3.12,12.24,8.79,13,17.27.59,6.71-2.11,11.87-7.28,15.91-.16.11-.31.25-.47.36A2.22,2.22,0,0,0,95.09,45a17.67,17.67,0,0,1,5.19,4.47,18.79,18.79,0,0,1,3.56,12.62,19.8,19.8,0,0,1-8.84,16,5.23,5.23,0,0,0-.55.41,1.64,1.64,0,0,0-.16.27l.82.32a97.11,97.11,0,0,1,24.55,12.32,2.15,2.15,0,0,1,1,2.68,2.18,2.18,0,0,1-2.84,1.29c-2.08-.5-4.17-1-6.25-1.52a207.2,207.2,0,0,0-25.84-4.28,216.18,216.18,0,0,0-33.66-.84A205.74,205.74,0,0,0,20.29,92.9c-3.6.77-7.21,1.65-10.79,2.49a2.38,2.38,0,0,1-2.26-.32,2.16,2.16,0,0,1,.29-3.56c2.81-1.79,5.62-3.62,8.52-5.28a87.56,87.56,0,0,1,14.3-6.48,1.19,1.19,0,0,0,.93-1.36q0-18.47,0-36.92V25c0-1.36-.09-1.43-1.36-1-2.36.72-4.71,1.45-7.07,2.2-2,.63-3.24-.28-3.24-2.36V16.54a2.13,2.13,0,0,1,1.63-2.38q11.06-4,22.1-8c2-.72,3.33.34,3.33,2.56V74.26c0,1.18,0,1.16,1.18,1,2.36-.32,4.71-.59,7.05-.88Z" style="fill:#fa6428"/></svg>