<?xml version="1.0" encoding="UTF-8" standalone="no"?>
<!-- Created with Inkscape (http://www.inkscape.org/) -->

<svg
   xmlns:dc="http://purl.org/dc/elements/1.1/"
   xmlns:cc="http://creativecommons.org/ns#"
   xmlns:rdf="http://www.w3.org/1999/02/22-rdf-syntax-ns#"
   xmlns:svg="http://www.w3.org/2000/svg"
   xmlns="http://www.w3.org/2000/svg"
   xmlns:sodipodi="http://sodipodi.sourceforge.net/DTD/sodipodi-0.dtd"
   xmlns:inkscape="http://www.inkscape.org/namespaces/inkscape"
   width="1000"
   height="275.52979"
   viewBox="0 0 264.58333 72.900591"
   version="1.1"
   id="svg8"
   inkscape:version="0.92.1 r15371"
   sodipodi:docname="CHV.svg">
  <title
     id="title5307">Chilevisión Logo 2018</title>
  <defs
     id="defs2" />
  <sodipodi:namedview
     id="base"
     pagecolor="#ffffff"
     bordercolor="#666666"
     borderopacity="1.0"
     inkscape:pageopacity="0.0"
     inkscape:pageshadow="2"
     inkscape:zoom="0.4043176"
     inkscape:cx="375.24301"
     inkscape:cy="276.32805"
     inkscape:document-units="px"
     inkscape:current-layer="layer1"
     showgrid="false"
     inkscape:window-width="1366"
     inkscape:window-height="705"
     inkscape:window-x="-8"
     inkscape:window-y="-8"
     inkscape:window-maximized="1"
     units="px"
     showguides="false"
     fit-margin-top="0.4"
     fit-margin-left="0"
     fit-margin-right="0"
     fit-margin-bottom="0"
     inkscape:showpageshadow="false" />
  <metadata
     id="metadata5">
    <rdf:RDF>
      <cc:Work
         rdf:about="">
        <dc:format>image/svg+xml</dc:format>
        <dc:type
           rdf:resource="http://purl.org/dc/dcmitype/StillImage" />
        <dc:title>Chilevisión Logo 2018</dc:title>
      </cc:Work>
    </rdf:RDF>
  </metadata>
  <g
     inkscape:label="Capa 1"
     inkscape:groupmode="layer"
     id="layer1"
     transform="translate(-88.087196,-40.048215)">
    <g
       id="g5292"
       transform="matrix(2.4583477,0,0,2.4583477,-128.46177,-164.71864)">
      <g
         style="fill:#1c3d59;fill-opacity:1"
         transform="matrix(1.1321211,0,0,1.1761779,-24.762351,-58.371899)"
         id="g5187">
        <path
           id="path5176"
           d="m 107.62149,143.46219 c 3.12126,0 5.6596,-2.53834 5.6596,-5.6596 v -0.74965 h -2.22691 v 0.74965 c 0,1.89205 -1.53927,3.4327 -3.43269,3.4327 -1.89205,0 -3.43269,-1.54065 -3.43269,-3.4327 v -0.74965 h -2.22691 v 0.74965 c 0,3.12126 2.53834,5.6596 5.6596,5.6596"
           style="fill:#1c3d59;fill-opacity:1;fill-rule:nonzero;stroke:none;stroke-width:0.35277781"
           inkscape:connector-curvature="0" />
        <path
           id="path5179"
           d="m 106.52595,132.39379 -4.56406,-2e-5 v 2.19666 l 4.56406,-5e-5 z"
           style="fill:#1c3d59;fill-opacity:1;fill-rule:nonzero;stroke:none;stroke-width:0.35277781"
           inkscape:connector-curvature="0"
           sodipodi:nodetypes="ccccc" />
        <path
           sodipodi:nodetypes="ccccc"
           id="path5182"
           d="m 113.28109,132.39379 h -4.52823 v 2.19659 h 4.52834 z"
           style="fill:#1c3d59;fill-opacity:1;fill-rule:nonzero;stroke:none;stroke-width:0.35277781"
           inkscape:connector-curvature="0" />
        <path
           id="path5185"
           d="m 106.52595,125.23488 3.51262,2.52043 h -8.06979 v 2.13872 l 10.65085,-0.008 h 0.6904 v -2.13045 l -6.78408,-5.11252 z m 0,0"
           style="fill:#1c3d59;fill-opacity:1;fill-rule:nonzero;stroke:none;stroke-width:0.35277781"
           inkscape:connector-curvature="0" />
      </g>
      <path
         sodipodi:nodetypes="ccccccccccccccccccssccsssccccsssccssscccsscssccsscssccccccccccccccccccccccscccccssscccccccccccccccccccccssccsssccccsccsssccsc"
         d="m 147.95335,93.172665 h 2.38879 l 3.53441,8.335595 c 0.34155,0.74574 0.61842,1.94014 0.61842,1.94014 0,0 0.25466,-1.1944 0.57598,-1.94014 l 3.47979,-8.335595 h 2.19875 l -6.21219,14.577755 -0.27675,-1e-5 z m 30.10419,4.27685 h 2.13012 v -1.986631 h -2.13012 z m 6.77027,1.39043 h 2.10789 l -0.0424,1.626885 c 0.54162,-1.145898 1.64911,-1.81484 2.96275,-1.81484 1.94014,0 3.27398,1.3783 3.27398,3.75496 v 5.19391 h -2.10587 v -5.02616 c 0,-1.253 -0.58406,-1.98257 -1.81482,-1.98257 -1.3763,0 -2.27361,0.83466 -2.27361,2.25338 v 4.75535 h -2.10787 z m -3.14868,4.381465 c 0,-1.60668 -0.9822,-2.73235 -2.54643,-2.73235 -1.56221,0 -2.56462,1.12567 -2.56462,2.73235 0,1.60466 1.00241,2.75257 2.56462,2.75257 1.56423,0 2.54643,-1.14791 2.54643,-2.75257 m -7.27956,0 c 0,-2.60907 2.08565,-4.56942 4.73313,-4.56942 2.66971,0 4.71493,1.96035 4.71493,4.56942 0,2.60706 -2.04522,4.5674 -4.71493,4.5674 -2.64748,0 -4.73313,-1.96034 -4.73313,-4.5674 m -11.43266,2.75257 1.43893,-1.0024 c 0.54163,0.77402 1.35608,1.1277 2.35849,1.1277 1.06302,0 1.542,-0.35368 1.542,-0.93976 0,-0.70733 -0.64671,-0.81243 -2.12809,-1.22874 -1.2914,-0.3557 -2.58483,-0.95996 -2.58483,-2.69194 0,-1.752187 1.3965,-2.58685 3.12848,-2.58685 1.39649,0 2.37869,0.586081 3.04561,1.315651 l -1.23077,1.208549 c -0.41835,-0.47898 -1.02262,-0.85487 -1.81484,-0.85487 -0.79222,0 -1.23078,0.29303 -1.23078,0.81243 0,0.66894 0.54162,0.81445 1.91993,1.16812 1.37628,0.35569 2.87788,0.89933 2.87788,2.75458 0,1.5016 -0.91754,2.73236 -3.40131,2.73236 -2.00077,0 -3.33664,-0.87508 -3.9207,-1.81483 m 10.38782,-8.803361 h -2.12809 v 1.481371 h 2.12809 z m -2.12809,1.481371 v 8.94887 h 2.12809 v -7.736289 z m -8.94686,-1.481371 h -2.12808 v 1.481371 h 2.12808 z m -2.12808,1.481371 v 8.94887 h 2.12808 v -7.736289 z m -11.94418,3.81762 c -0.18794,-1.18834 -0.91752,-2.06342 -2.37869,-2.06342 -1.35607,0 -2.2938,0.74978 -2.54439,2.06342 z m -2.14829,3.54681 c 1.1459,0 1.98056,-0.45876 2.48176,-0.93773 l 1.22875,1.29342 c -0.81243,0.81042 -1.93811,1.41671 -3.6903,1.41671 -3.00316,0 -4.94331,-1.94014 -4.94331,-4.56741 0,-2.60706 2.04322,-4.569415 4.67249,-4.569415 2.98297,0 4.67251,2.212965 4.52497,5.278775 h -7.04915 c 0.25059,1.27322 1.16811,2.08565 2.77479,2.08565 m -8.094,-12.764472 2.10584,8.8e-5 v 14.348834 h -2.10584 z m -1.56424,3.920685 h -2.12809 v 1.479362 h 2.12809 z m -2.12809,1.479362 v 8.948875 h 2.12809 v -7.736295 z m -9.70068,-5.40207 h 2.10585 v 7.134035 c 0.56384,-1.085256 1.60869,-1.731965 2.92234,-1.731965 1.94012,0 3.27397,1.378305 3.27397,3.754965 v 5.19391 h -2.10586 v -5.02617 c 0,-1.25301 -0.58406,-1.98258 -1.81482,-1.98258 -1.3763,0 -2.27563,0.83466 -2.27563,2.25137 v 4.75738 h -2.10585 z m -13.93464,7.259335 c 0,-4.233941 3.25378,-7.257312 7.27956,-7.257312 2.54441,0 4.42189,0.937733 5.67288,2.815207 l -1.68751,1.208548 c -0.79425,-1.228757 -2.13011,-2.04321 -3.98537,-2.04321 -2.94052,0 -5.02616,2.251373 -5.02616,5.276767 0,3.02541 2.08564,5.29698 5.02616,5.29698 1.96034,0 3.27398,-0.87508 4.19353,-2.23115 l 1.68751,1.19034 c -1.22876,1.87547 -3.23154,3.02339 -5.88104,3.02339 -4.02578,0 -7.2795,-3.04562 -7.2795,-7.27956"
         style="fill:#ff1a6a;fill-opacity:1;fill-rule:nonzero;stroke:none;stroke-width:0.51736969"
         id="path8733"
         inkscape:connector-curvature="0" />
    </g>
  </g>
</svg>
