<svg id="Capa_1" data-name="Capa 1" xmlns="http://www.w3.org/2000/svg" viewBox="0 0 363.73 90"><path d="M41,63.42a13.73,13.73,0,0,1-13.44,14,13.73,13.73,0,0,1-13.44-14V60.37H5.44v3.05c0,12.69,9.94,23,22.16,23h0c12.22,0,22.16-10.33,22.16-23V60.37H41Z" style="fill:#1d3d59"/><rect x="5.44" y="41.42" width="17.87" height="8.94" style="fill:#1d3d59"/><rect x="32.03" y="41.42" width="17.73" height="8.94" style="fill:#1d3d59"/><polygon points="23.31 1.75 23.31 12.3 37.06 22.55 5.47 22.55 5.47 31.25 47.17 31.21 49.87 31.21 49.87 22.55 23.31 1.75" style="fill:#1d3d59"/><path d="M240.2,27l-12,28.83a45,45,0,0,0-2,6.71A44.3,44.3,0,0,0,224,55.81L211.81,27h-8.26L225.36,77.4h1L247.8,27Z" style="fill:#e72b6d"/><rect x="307.66" y="34.9" width="7.37" height="6.87" style="fill:#e72b6d"/><path d="M348.47,45.93a11,11,0,0,0-10.25,6.28l.15-5.63h-7.29v30.3h7.29V60.43c0-4.9,3.1-7.79,7.86-7.79,4.26,0,6.28,2.52,6.28,6.86V76.88h7.28v-18C359.79,50.7,355.18,45.93,348.47,45.93Z" style="fill:#e72b6d"/><path d="M311.38,45.93c-9.16,0-16.37,6.78-16.37,15.8s7.21,15.8,16.37,15.8,16.31-6.78,16.31-15.8S320.61,45.93,311.38,45.93Zm0,25.32c-5.4,0-8.87-4-8.87-9.52s3.47-9.45,8.87-9.45,8.81,3.9,8.81,9.45S316.79,71.25,311.38,71.25Z" style="fill:#e72b6d"/><path d="M270.84,58.55c-4.76-1.22-6.64-1.72-6.64-4,0-1.79,1.52-2.81,4.26-2.81a8.2,8.2,0,0,1,6.28,3L279,50.48a13.76,13.76,0,0,0-10.53-4.55c-6,0-10.82,2.89-10.82,9s4.47,8.08,8.94,9.31c5.12,1.44,7.36,1.8,7.36,4.25,0,2-1.66,3.25-5.33,3.25a9.37,9.37,0,0,1-8.16-3.9l-5,3.46h0c2,3.25,6.64,6.28,13.56,6.28,8.59,0,11.77-4.26,11.77-9.45C280.8,61.66,275.6,59.78,270.84,58.55Z" style="fill:#e72b6d"/><rect x="284.04" y="40.81" width="7.36" height="5.12" style="fill:#e72b6d"/><polygon points="291.4 76.88 291.4 50.12 284.04 45.93 284.04 76.88 291.4 76.88" style="fill:#e72b6d"/><rect x="245.74" y="40.81" width="7.36" height="5.12" style="fill:#e72b6d"/><polygon points="253.1 76.88 253.1 50.12 245.74 45.93 245.74 76.88 253.1 76.88" style="fill:#e72b6d"/><path d="M196.13,45.93C187,45.93,180,52.72,180,61.73s6.71,15.8,17.1,15.8c6.06,0,10-2.1,12.76-4.9l-4.25-4.47A12.29,12.29,0,0,1,197,71.4c-5.56,0-8.73-2.81-9.6-7.21h24.38C212.29,53.58,206.45,45.93,196.13,45.93Zm-8.73,13.2c.87-4.54,4.11-7.13,8.8-7.13,5.05,0,7.58,3,8.23,7.13Z" style="fill:#e72b6d"/><rect x="169.01" y="27.25" width="7.28" height="49.63" style="fill:#e72b6d"/><rect x="156.24" y="40.81" width="7.36" height="5.12" style="fill:#e72b6d"/><polygon points="163.59 76.88 163.59 50.12 156.24 45.93 156.24 76.88 163.59 76.88" style="fill:#e72b6d"/><path d="M140.08,45.93a11,11,0,0,0-10.11,6V27.25h-7.28V76.88H130V60.43c0-4.9,3.11-7.79,7.87-7.79,4.26,0,6.28,2.52,6.28,6.86V76.88h7.28v-18C151.4,50.7,146.79,45.93,140.08,45.93Z" style="fill:#e72b6d"/><path d="M99.67,70.67c-10.17,0-17.38-7.85-17.38-18.32S89.5,34.1,99.67,34.1c6.42,0,11,2.82,13.78,7.07L119.29,37c-4.33-6.49-10.82-9.74-19.62-9.74-13.92,0-25.18,10.46-25.18,25.1h0c0,14.65,11.26,25.18,25.18,25.18,9.16,0,16.09-4,20.34-10.46L114.17,63A16.48,16.48,0,0,1,99.67,70.67Z" style="fill:#e72b6d"/></svg>