<svg xmlns="http://www.w3.org/2000/svg" x="0px" y="0px" viewBox="0 0 557 385"><g><path class="st0" d="M473.1,329.4c-26.6,11.1-57.3-0.4-69.2-26.3l-86.9-181c-11.5-25.5,0.7-55.9,27-67c26.6-11.1,57.3,0.4,69.2,26.3l86.9,181C511.5,288.3,499.3,318.3,473.1,329.4 M299.2,329.4c-26.6,11.1-57.3-0.4-69.2-26.3l-86.6-181c-5.5-12.6-5.5-26.3-1.1-38.5c4.8-12.2,14.4-22.9,28.1-28.5c6.3-2.6,12.6-4.1,19.2-4.1h0.4h1.5h1.5h0.4c6.3,0.4,12.9,1.5,19.2,4.1c13.3,5.6,23.3,16.3,28.1,28.5l85.8,178.7C338.1,288.3,325.8,318.3,299.2,329.4 M153.1,303.1c-11.5,25.9-42.5,37.4-69.2,26.3c-26.3-11.1-38.5-41.4-27-67L105,162.1l57.7,120.6L153.1,303.1z M548.2,242.1l-86.9-181C437.9,9.7,376.2-14,322.9,8.6c-18.9,8.1-34,20.7-44.8,36.3C259.3,17.4,228.2,1.2,194.9,0h-0.7h-2.6h-3h-1.1C148.7,1.5,112,24.1,95.8,61.1l-86.9,181c-23.3,51.4,1.1,111.8,54,134.3c47,20,101,3.7,128.7-35.9c27.7,40,81.7,55.9,128.7,35.9c18.9-8.1,34-20.7,44.8-36.3c27.7,40,81.7,56.2,129.1,36.3C547.1,353.8,571.5,293.5,548.2,242.1"></path></g></svg>