<?xml version="1.0" encoding="utf-8"?>
<!-- Generator: Adobe Illustrator 24.1.0, SVG Export Plug-In . SVG Version: 6.00 Build 0)  -->
<svg version="1.1" id="Capa_1" xmlns="http://www.w3.org/2000/svg" xmlns:xlink="http://www.w3.org/1999/xlink" x="0px" y="0px"
	 viewBox="0 0 96.9 39.7" style="enable-background:new 0 0 96.9 39.7;" xml:space="preserve">
<style type="text/css">
	.st0{fill:#ED3268;}
	.st1{fill:#FCE300;}
	.st2{fill:#404041;}
</style>
<g>
	<path class="st0" d="M30.2,15.1C30.2,6.8,23.5,0,15.1,0S0,6.8,0,15.1C0,21,3.4,26,8.3,28.5h0c0,0,0.3,0.2,0.8,0.4
		c0.1,0,0.1,0.1,0.2,0.1c2,0.8,6.9,2.5,13.6,2.4v-3.5C27.3,25.3,30.2,20.5,30.2,15.1z"/>
	<g>
		<path class="st1" d="M26.8,9.1V8.2c0-0.8,0.6-1.4,1.3-1.4h2.3c0.8,0,1.3,0.6,1.3,1.4v1l-1,6.4c-0.1,0.4-0.4,0.7-0.8,0.7h-1.5
			c-0.4,0-0.8-0.3-0.8-0.7L26.8,9.1z M27.3,19.1c0-0.5,0.4-0.8,0.8-0.8h2.4c0.5,0,0.8,0.4,0.8,0.8v2.4c0,0.5-0.4,0.8-0.8,0.8h-2.4
			c-0.5,0-0.8-0.4-0.8-0.8V19.1z"/>
	</g>
	<g>
		<path class="st1" d="M9.9,18.8c0-0.4,0.3-0.7,0.6-0.7h1.6c0.4,0,0.6,0.3,0.6,0.7c0,2.2-1.6,3.4-3.9,3.4h-2c-0.9,0-1.6-0.2-2.2-0.6
			c-0.6-0.4-0.9-0.8-1.1-1.4c-0.2-0.6-0.4-1.5-0.4-2.6V14c-0.4,0-0.7-0.3-0.7-0.7v-3c0-0.4,0.3-0.7,0.7-0.7V8.1
			c0-0.8,0.6-1.3,1.4-1.3h2.9c0.7,0,1.3,0.6,1.3,1.3v1.5h1.1c0.4,0,0.7,0.3,0.7,0.7v3c0,0.4-0.3,0.7-0.7,0.7H8.9v3.5
			c0,1,0.2,1.4,0.9,1.4L9.9,18.8L9.9,18.8z"/>
		<path class="st1" d="M26.2,10.4c-0.3,1.4-0.7,3.1-1.3,5.4c-0.5,2.1-1,3.9-1.6,5.6c-0.2,0.5-0.7,0.9-1.3,0.9h-6
			c-0.6,0-1.1-0.3-1.3-0.8l-0.4-1.3c-0.7-2.3-1.2-4.5-1.6-6.1c-0.3-1.3-0.6-2.4-0.8-3.4v-0.1c0-0.4,0.4-0.8,0.8-0.8h3.8
			c0.7,0,1.2,0.5,1.3,1.1l1.1,6c0.3-1.4,0.7-3.5,1.2-5.8c0.1-0.7,0.6-1.3,1.4-1.3h3.7C25.8,9.6,26.2,9.9,26.2,10.4
			C26.2,10.3,26.2,10.4,26.2,10.4z"/>
	</g>
	<g>
		<path class="st2" d="M45.1,10.1c0,0.8-0.6,1.3-1.3,1.3h-4.9V13H43c0.5,0,0.8,0.4,0.8,0.8v1.3c0,0.5-0.4,0.8-0.8,0.8h-4.1v1.6h4.9
			c0.8,0,1.3,0.6,1.3,1.3v2c0,0.8-0.6,1.4-1.3,1.4h-9.2c-0.8,0-1.3-0.6-1.3-1.4V8.1c0-0.7,0.6-1.3,1.3-1.3h9.2
			c0.8,0,1.3,0.6,1.3,1.3V10.1z"/>
		<path class="st2" d="M58.7,20.9c0,0.8-0.6,1.4-1.3,1.4h-2.9c-0.8,0-1.4-0.6-1.4-1.4v-1.1c-0.5,1.4-1.8,2.5-3.4,2.5h-0.2
			c-2,0-3.6-1.6-3.6-3.6v-5.4c0-2,1.6-3.6,3.6-3.6h0.2c1.6,0,2.9,1,3.4,2.5v-4c0-0.8,0.6-1.3,1.4-1.3h2.9c0.7,0,1.3,0.6,1.3,1.3
			L58.7,20.9L58.7,20.9z M53,14.7c0-0.5-0.4-1-1-1c-0.6,0-1.1,0.5-1.1,1v2.5c0,0.6,0.5,1,1,1c0.6,0,1-0.5,1-1
			C53,17.2,53,14.7,53,14.7z"/>
		<path class="st2" d="M67.7,22.2c-0.7,0-1.3-0.6-1.3-1.4v-1.2c0,0-0.3,2.6-3,2.6c-3.1,0-4-2.1-4-5.1V11c0-0.8,0.6-1.4,1.3-1.4h2.9
			c0.8,0,1.4,0.6,1.4,1.4v6.8c0,0.4,0.3,0.7,0.7,0.7s0.7-0.3,0.7-0.7V11c0-0.8,0.6-1.4,1.3-1.4h2.9c0.8,0,1.3,0.6,1.3,1.4v9.9
			c0,0.8-0.6,1.4-1.3,1.4L67.7,22.2L67.7,22.2z"/>
		<path class="st2" d="M79,9.5c2.4,0,4.6,2,4.6,4.4v0.3c0,0.4-0.3,0.6-0.7,0.6h-2.8c-0.3,0-0.5-0.2-0.5-0.5c0-0.6-0.5-1-1.1-1
			c-0.6,0-1,0.4-1,1v3c0,0.6,0.5,1,1.1,1c0.5,0,1-0.4,1-1c0-0.3,0.2-0.5,0.6-0.5h2.8c0.4,0,0.7,0.3,0.7,0.6v0.4
			c0,2.4-2.1,4.4-4.6,4.4h-0.7c-4.1,0-5.8-2.6-5.8-6.5c0-4.1,2.2-6.3,5.9-6.3L79,9.5L79,9.5z"/>
		<path class="st2" d="M88.8,13.6v0.2c0,0.4-0.3,0.7-0.6,0.7h-2.8c-0.4,0-0.7-0.3-0.7-0.7v-2c0-1.2,1-2.2,2.2-2.2h5.5
			c3.2,0,4.4,1.7,4.4,4.6v6.6c0,0.8-0.6,1.4-1.3,1.4h-2.8c-0.7,0-1.3-0.6-1.3-1.4v-1.2c0,0-0.3,2.6-3.1,2.6h-0.2
			c-2.5-0.1-4.2-1.3-4.2-3.7c0-3.2,2.5-3.7,5.1-3.7c0.9,0,1.7,0.1,2.3,0.2v-0.1c0-1-0.1-1.3-1.1-1.3L88.8,13.6L88.8,13.6z
			 M91.3,16.3c-0.4,0-0.7,0-0.8,0c-1.2,0-1.9,0-1.9,1.2c0,1,0.6,1.1,1.4,1.1h1.3L91.3,16.3L91.3,16.3z"/>
	</g>
	<g>
		<path class="st2" d="M32.2,28.9c-0.6,0-1,0.5-1,1.2v3.5c0,0.6,0.4,1.1,1,1.1c0.5,0,1-0.4,1-0.7c0-0.7,0.6-1.2,1.4-1.2h2.3
			c0.8,0,1.4,0.6,1.4,1.4v1.4c0,2.2-2.2,4.2-4.6,4.2h-1.5c-4.7,0-6.8-2.9-6.8-7.5c0-5.5,2.7-7.9,7.2-7.9h0.9c2.3,0,4.8,2,4.8,4.2
			v1.3c0,0.8-0.6,1.4-1.4,1.4h-2.2c-0.8,0-1.3-0.5-1.3-1.2C33.2,29.4,32.9,28.9,32.2,28.9z"/>
		<path class="st2" d="M44.5,29.6c0,0,0.3-2.6,3.1-2.6c3.3,0,4,2.3,4,5.1v6.2c0,0.8-0.6,1.4-1.4,1.4h-2.9c-0.7,0-1.3-0.6-1.3-1.4
			v-6.8c0-0.4-0.3-0.7-0.7-0.7c-0.4,0-0.7,0.3-0.7,0.7v6.8c0,0.8-0.6,1.4-1.3,1.4h-2.9c-0.8,0-1.4-0.6-1.4-1.4V25.5
			c0-0.8,0.6-1.3,1.4-1.3h2.9c0.8,0,1.3,0.6,1.3,1.3V29.6z"/>
		<path class="st2" d="M52.4,24.4c0-0.7,0.6-1.3,1.4-1.3h2.9c0.7,0,1.3,0.6,1.3,1.3v0.3c0,0.8-0.6,1.3-1.3,1.3h-2.9
			c-0.7,0-1.4-0.6-1.4-1.3V24.4z M52.4,28.4c0-0.8,0.6-1.4,1.4-1.4h2.9c0.8,0,1.4,0.6,1.4,1.4v9.9c0,0.8-0.6,1.4-1.4,1.4h-2.9
			c-0.7,0-1.4-0.6-1.4-1.4V28.4z"/>
		<path class="st2" d="M64.8,35.6H65c0.4,0,0.7,0.3,0.7,0.6V39c0,0.4-0.3,0.6-0.7,0.6h-3.7c-1.2,0-2.2-1-2.2-2.2v-12
			c0-0.8,0.6-1.3,1.4-1.3h2.9c0.8,0,1.4,0.6,1.4,1.3L64.8,35.6L64.8,35.6z"/>
		<path class="st2" d="M71.8,39.6c-4.3,0-6.1-1.8-6.1-6.4c0-4.3,1.8-6.3,6.4-6.3h2.2c2.4,0,4.4,1.8,4.4,4.5c0,2.6-2.4,2.9-4.7,2.9
			c-1,0-1.8,0-2.6-0.1v0.1c0,1.1,0.5,1.4,1.3,1.4h1.9v-0.4c0-0.3,0.3-0.6,0.7-0.6h2.8c0.3,0,0.6,0.3,0.6,0.7c0,2.6-2.4,4.4-5,4.4
			L71.8,39.6L71.8,39.6z M71.4,32.7c0.4,0,1.1,0.1,1.9,0.1c0.9,0,1.1-0.3,1.1-1c0-0.7-0.4-1.2-1.4-1.2c-1.3,0-1.5,0.9-1.5,1.9
			L71.4,32.7L71.4,32.7z"/>
	</g>
</g>
</svg>
