<?xml version="1.0" encoding="utf-8"?>
<!-- Generator: Adobe Illustrator 24.3.0, SVG Export Plug-In . SVG Version: 6.00 Build 0)  -->
<svg version="1.1" id="Capa_1" xmlns="http://www.w3.org/2000/svg" xmlns:xlink="http://www.w3.org/1999/xlink" x="0px" y="0px"
	 viewBox="0 0 90.7 38.4" style="enable-background:new 0 0 90.7 38.4;" xml:space="preserve">
<style type="text/css">
	.st0{fill:#FF0000;}
</style>
<g>
	<g>
		<path class="st0" d="M56.3,0.8c-2-0.8-4.2,0.3-4.9,2.3l-7.3,20l-7.3-20c0,0-0.1-0.1-0.1-0.1c-0.1-0.1-0.1-0.3-0.2-0.4
			c-0.1-0.1-0.1-0.2-0.2-0.3c-0.1-0.1-0.1-0.2-0.2-0.3c-0.1-0.1-0.2-0.2-0.3-0.3c-0.1-0.1-0.2-0.2-0.3-0.2c-0.1-0.1-0.2-0.2-0.3-0.3
			C35.1,1.2,35,1.1,34.9,1c-0.1-0.1-0.2-0.2-0.4-0.2c-0.1-0.1-0.2-0.1-0.3-0.1c-0.2-0.1-0.3-0.1-0.4-0.1c-0.1,0.1-0.1,0.1-0.2,0.1
			c-0.2,0-0.3-0.1-0.5-0.1h-0.1H3.9C1.7,0.6,0,2.3,0,4.4c0,2.1,1.7,3.9,3.9,3.9h9.5v26.1c0,2.1,1.8,3.9,3.9,3.9s3.9-1.8,3.9-3.9v-26
			h9.3l9.9,27.5c0.8,2,3,3,4.9,2.3c0.1-0.1,0.2-0.1,0.3-0.2c0,0,0.1,0,0.1-0.1c0.2-0.1,0.3-0.2,0.5-0.3c0.1-0.1,0.2-0.1,0.2-0.2
			c0.1-0.1,0.2-0.2,0.3-0.3c0.1-0.1,0.3-0.2,0.3-0.4c0-0.1,0.1-0.1,0.1-0.1c0.2-0.3,0.4-0.6,0.5-1l10.8-30
			C59.4,3.8,58.3,1.5,56.3,0.8"/>
		<path class="st0" d="M59.9,0.7v37.5h7.7V17.4c0,0-0.5-8.1,6.7-9.8c0,0,8.2-2.6,8.6,6.2v24.5h7.7V14c0,0,0.8-9.7-6.4-12.7
			c0,0-9.9-4.3-16.9,3.2V0.8L59.9,0.7L59.9,0.7z"/>
	</g>
</g>
</svg>
